<svg width="24" height="24" viewBox="0 0 24 24" fill="none" xmlns="http://www.w3.org/2000/svg">
<g id="compass">
<path id="Vector" fill-rule="evenodd" clip-rule="evenodd" d="M8.17317 2.7612C9.38642 2.25866 10.6868 2 12 2C13.3132 2 14.6136 2.25866 15.8268 2.7612C17.0401 3.26375 18.1425 4.00035 19.0711 4.92893C19.9997 5.85752 20.7362 6.95991 21.2388 8.17317C21.7413 9.38642 22 10.6868 22 12C22 13.3132 21.7413 14.6136 21.2388 15.8268C20.7362 17.0401 19.9997 18.1425 19.0711 19.0711C18.1425 19.9997 17.0401 20.7362 15.8268 21.2388C14.6136 21.7413 13.3132 22 12 22C10.6868 22 9.38642 21.7413 8.17317 21.2388C6.95991 20.7362 5.85752 19.9997 4.92893 19.0711C4.00035 18.1425 3.26375 17.0401 2.7612 15.8268C2.25866 14.6136 2 13.3132 2 12C2 10.6868 2.25866 9.38642 2.7612 8.17317C3.26375 6.95991 4.00035 5.85752 4.92893 4.92893C5.85752 4.00035 6.95991 3.26375 8.17317 2.7612ZM11 4.06275C10.293 4.15182 9.59962 4.33513 8.93853 4.60896C7.96793 5.011 7.08601 5.60028 6.34315 6.34315C5.60028 7.08601 5.011 7.96793 4.60896 8.93853C4.33513 9.59962 4.15182 10.293 4.06275 11H5C5.55228 11 6 11.4477 6 12C6 12.5523 5.55228 13 5 13H4.06275C4.15182 13.707 4.33513 14.4004 4.60896 15.0615C5.011 16.0321 5.60028 16.914 6.34315 17.6569C7.08601 18.3997 7.96793 18.989 8.93853 19.391C9.59962 19.6649 10.293 19.8482 11 19.9373V19C11 18.4477 11.4477 18 12 18C12.5523 18 13 18.4477 13 19V19.9373C13.707 19.8482 14.4004 19.6649 15.0615 19.391C16.0321 18.989 16.914 18.3997 17.6569 17.6569C18.3997 16.914 18.989 16.0321 19.391 15.0615C19.6649 14.4004 19.8482 13.707 19.9373 13H19C18.4477 13 18 12.5523 18 12C18 11.4477 18.4477 11 19 11H19.9373C19.8482 10.293 19.6649 9.59962 19.391 8.93853C18.989 7.96793 18.3997 7.08602 17.6569 6.34315C16.914 5.60028 16.0321 5.011 15.0615 4.60896C14.4004 4.33513 13.707 4.15182 13 4.06275V5C13 5.55228 12.5523 6 12 6C11.4477 6 11 5.55228 11 5V4.06275ZM16.7071 7.29289C16.9749 7.56073 17.0685 7.95689 16.9487 8.31623L14.9487 14.3162C14.8491 14.6148 14.6148 14.8491 14.3162 14.9487L8.31623 16.9487C7.95689 17.0685 7.56073 16.9749 7.29289 16.7071C7.02506 16.4393 6.93154 16.0431 7.05132 15.6838L9.05132 9.68377C9.15085 9.38517 9.38517 9.15085 9.68377 9.05132L15.6838 7.05132C16.0431 6.93154 16.4393 7.02506 16.7071 7.29289ZM10.7906 10.7906L9.58114 14.4189L13.2094 13.2094L14.4189 9.58114L10.7906 10.7906Z" fill="#7B9999"/>
</g>
</svg>
