<svg width="24" height="24" viewBox="0 0 24 24" fill="none" xmlns="http://www.w3.org/2000/svg">
<g id="messages">
<path id="Vector" fill-rule="evenodd" clip-rule="evenodd" d="M9.58579 2.58579C9.96086 2.21071 10.4696 2 11 2H20C20.5304 2 21.0391 2.21071 21.4142 2.58579C21.7893 2.96086 22 3.46957 22 4V14C22 14.4045 21.7564 14.7691 21.3827 14.9239C21.009 15.0787 20.5789 14.9931 20.2929 14.7071L17.5858 12H11C10.4696 12 9.96086 11.7893 9.58579 11.4142C9.21071 11.0391 9 10.5304 9 10V4C9 3.46957 9.21071 2.96086 9.58579 2.58579ZM20 4H11V10H18C18.2652 10 18.5196 10.1054 18.7071 10.2929L20 11.5858V4ZM2.58579 9.58579C2.96086 9.21071 3.46957 9 4 9H6C6.55228 9 7 9.44772 7 10C7 10.5523 6.55228 11 6 11H4V18.5858L5.29289 17.2929C5.48043 17.1054 5.73478 17 6 17H13V15C13 14.4477 13.4477 14 14 14C14.5523 14 15 14.4477 15 15V17C15 17.5304 14.7893 18.0391 14.4142 18.4142C14.0391 18.7893 13.5304 19 13 19H6.41421L3.70711 21.7071C3.42111 21.9931 2.99099 22.0787 2.61732 21.9239C2.24364 21.7691 2 21.4045 2 21V11C2 10.4696 2.21071 9.96086 2.58579 9.58579Z" fill="white"/>
</g>
</svg>
