<svg width="24" height="24" viewBox="0 0 24 24" fill="none" xmlns="http://www.w3.org/2000/svg">
<g id="paperclip">
<path id="Vector" fill-rule="evenodd" clip-rule="evenodd" d="M11.2928 3.29286C12.276 2.30967 13.6095 1.75732 14.9999 1.75732C16.3904 1.75732 17.7239 2.30967 18.7071 3.29286C19.6902 4.27604 20.2426 5.60953 20.2426 6.99996C20.2426 8.3904 19.6902 9.72389 18.7071 10.7071L12.2071 17.2071C11.6217 17.7924 10.8278 18.1213 9.99995 18.1213C9.17212 18.1213 8.3782 17.7924 7.79284 17.2071C7.20748 16.6217 6.87863 15.8278 6.87863 15C6.87863 14.1721 7.20748 13.3782 7.79284 12.7929L14.2928 6.29286C14.6834 5.90233 15.3165 5.90233 15.7071 6.29286C16.0976 6.68338 16.0976 7.31655 15.7071 7.70707L9.20705 14.2071C8.99677 14.4174 8.87863 14.7026 8.87863 15C8.87863 15.2974 8.99677 15.5826 9.20705 15.7929C9.41734 16.0031 9.70256 16.1213 9.99995 16.1213C10.2973 16.1213 10.5826 16.0031 10.7928 15.7929L17.2928 9.29286C17.901 8.68474 18.2426 7.85997 18.2426 6.99996C18.2426 6.13996 17.901 5.31519 17.2928 4.70707C16.6847 4.09896 15.8599 3.75732 14.9999 3.75732C14.1399 3.75732 13.3152 4.09896 12.7071 4.70707L6.20705 11.2071C5.20112 12.213 4.63599 13.5774 4.63599 15C4.63599 16.4226 5.20112 17.7869 6.20705 18.7929C7.21299 19.7988 8.57734 20.3639 9.99995 20.3639C11.4226 20.3639 12.7869 19.7988 13.7928 18.7929L20.2928 12.2929C20.6834 11.9023 21.3165 11.9023 21.7071 12.2929C22.0976 12.6834 22.0976 13.3165 21.7071 13.7071L15.2071 20.2071C13.826 21.5881 11.953 22.3639 9.99995 22.3639C8.0469 22.3639 6.17385 21.5881 4.79284 20.2071C3.41183 18.8261 2.63599 16.953 2.63599 15C2.63599 13.0469 3.41183 11.1739 4.79284 9.79286L11.2928 3.29286Z" fill="#A3BFBA"/>
</g>
</svg>
